<svg xmlns="http://www.w3.org/2000/svg" xmlns:xlink="http://www.w3.org/1999/xlink" preserveAspectRatio="xMidYMid meet" width="640" height="640" xmlns:v="https://vecta.io/nano"><style><![CDATA[.B{fill-opacity:0}.C{stroke:#000}.D{fill:#1f3776}]]></style><defs><path d="M479.88 558.16c0 6.87-5.09 12.46-11.37 12.46s-11.37-5.59-11.37-12.46c0-6.89 5.09-12.46 11.37-12.46s11.37 5.57 11.37 12.46" id="A"/><path d="M503.02 84c-6.87 8.76-8.92 17.37-9.79 23.35-77.06 42.93-125.14 82.21-154.2 105.95-7.06 5.77-14.89 12.17-19.18 15.17H33.94l-1.48-.03C13.95 228.44 0 241.31 0 258.37v25.87c0 13.8 9.41 25.92 23.41 30.15.37.11.75.21 1.13.31 2.95.74 5.25 1.39 7.04 1.94 18.54 108.72 85.98 182.05 118.95 217.89l11.69 13v4.97c0 18.32 13.32 36.87 38.77 36.87h241.16c18.5 0 38.46-14.36 38.46-37.57l-.07-5.72 1.81-2.03c13.19-14.78 44.07-49.4 72.91-93.69 32.68-50.19 52.15-96.64 58.02-138.37 3.52-1.38 7.23-3.37 10.83-6.3 10.46-8.5 15.8-21.23 15.88-37.86.17-8.33-2.75-20.26-11.55-29.43-5.82-6.07-16.44-13.31-33.99-13.31h-59.8c9.97-12.22 26.18-31.84 34.08-36.74.33.02.66.03.97.04 2.5.11 5.08.21 7.67.21 4.34 0 8.02-.29 11.59-.93.8-.15 1.6-.33 2.39-.55 22.1-6.24 37.05-24.17 37.47-44.79.38-7.5-.33-32.88-23.96-58.01-.12-.13-.23-.25-.36-.37-8.12-8.29-29.38-27.57-51.42-27.57-28.39 0-43.58 19.36-50.06 27.62zm83.66 17.47c19.37 20.61 17.17 39.96 17.17 39.96 0 10.75-9.05 18.72-19.27 21.61-2.31.41-4.68.54-7.21.54-3.34 0-6.96-.23-11.12-.35-19.47 0-54.1 53.25-75.57 74.75-7.64 7.66-1.34 12.13 3.82 12.13h99.95c21.26 0 20.56 17.33 20.56 17.33 0 30.3-25.01 19.17-25.01 26.14C584.36 402.64 465.67 524 458.19 533.71c-3.53 3.81-2.56 7.83-2.56 18.09 0 9.98-10.29 12.55-13.48 12.55H200.99c-13.67 0-13.8-9.91-13.8-11.85v-11.51c0-13.92-112.99-95.59-132.56-238.77-.93-5.6-15.63-9.68-24.01-11.79-3.56-1.07-5.65-3.78-5.65-6.19v-25.87c0-4.46 5.35-4.9 7.49-4.9a15.75 15.75 0 0 1 .86.02h291.52c12.61 0 64.09-60.54 187.18-127.95 8.98-6.07 2.24-15.38 10.64-26.08 8.4-10.71 16.49-18.06 30.42-18.06 13.94 0 26.88 16.06 33.6 20.07z" id="B"/><path d="M442.17 568.53H201.01c-13.24 0-17.96-8.27-17.96-16.02V541c-.53-2.46-9-11.67-17.2-20.58-32.62-35.48-100.52-109.3-115.33-217.61-.2-.4-2.36-3.65-20.9-8.32-5.25-1.59-8.79-5.77-8.79-10.24v-25.87c0-5.51 4.57-9.07 11.64-9.07.44 0 .79.01.99.03h291.4c3.13-.08 14.89-9.69 27.35-19.87 29.32-23.95 78.38-64.04 157.64-107.47 2.8-1.95 3.14-4.09 3.64-8.67.5-4.61 1.13-10.33 5.91-16.44 7.46-9.5 16.84-19.65 33.69-19.65 15.25 0 34.44 19.14 36.57 21.32 19.51 20.75 18.59 40.43 18.37 43.08-.11 13.24-11.26 22.31-22.31 25.42-.13.04-.26.07-.4.1-2.32.41-4.84.6-7.93.6-2.13 0-4.37-.08-6.78-.18l-4.46-.17c-11.33.01-33.27 26.92-49.29 46.57-8.44 10.36-16.41 20.14-23.23 26.96-2.26 2.28-2.39 3.55-2.3 3.76.21.5 1.58 1.26 3.18 1.26h99.96c8.2 0 14.59 2.32 18.98 6.9 6.01 6.26 5.76 14.41 5.75 14.76 0 23.95-15.16 26.02-22.44 27.01-.84.12-1.9.25-2.65.41-3.88 65.7-46.69 144.81-127.25 235.12l-5.35 6.11c-.08.1-.16.2-.25.3-1.54 1.66-1.65 3.22-1.52 9.77l.08 5.48c0 12.51-12.12 16.71-17.65 16.71" id="C"/><path d="M516.11 94.3c-5.52 7.05-6.24 13.7-6.77 18.57-.47 4.26-.72 4.86-1.7 5.57-79.48 43.57-128.67 83.76-158.08 107.79-10.65 8.7-21.66 17.7-25.2 18.93H33.56c-.27-.02-.64-.03-1.1-.03-10.92 0-15.81 6.65-15.81 13.24v25.87c0 6.29 4.76 12.12 11.56 14.18.13.04.26.07.38.1 12.35 3.11 16.62 5.4 18.01 6.4 15.42 108.75 83.42 182.69 116.18 218.31 6.77 7.37 14.4 15.67 16.09 18.77v10.5c0 9.31 5.8 20.19 22.13 20.19h241.15c8.8 0 21.81-6.64 21.81-20.89l-.07-5.56c-.1-4.78-.06-6.35.4-6.85.18-.18.34-.38.5-.58.58-.76 2.7-3.13 5.15-5.88 12.94-14.5 43.23-48.46 71.38-91.69 34.32-52.71 53.38-100.65 56.7-142.59 7.59-1.06 25.33-4.33 25.33-31.21 0 .11-.01.22-.01.33.04-1.05.2-10.41-6.9-17.82-5.21-5.42-12.61-8.18-21.99-8.18h-95.83c6.46-6.78 13.77-15.73 21.45-25.16 9.26-11.35 18.82-23.09 27.68-31.97 11.98-12 17.12-13.05 18.46-13.06l4.27.15 6.91.2c3.34 0 6.09-.22 8.66-.68.26-.05.53-.11.79-.18 15.03-4.25 25.17-16 25.34-29.3.27-3.85.64-24.66-19.44-46.02l-.12-.12c-3.69-3.77-22.95-22.57-39.54-22.57-18.72 0-28.9 10.97-36.97 21.24zm70.57 7.17c19.37 20.61 17.18 39.96 17.18 39.96 0 10.75-9.06 18.72-19.28 21.61-2.3.41-4.66.54-7.19.54-3.34 0-6.97-.23-11.14-.34-19.46 0-54.1 53.24-75.57 74.75-7.64 7.65-1.34 12.12 3.82 12.12h99.95c21.26 0 20.57 17.33 20.57 17.33 0 30.3-25.02 19.17-25.02 26.14C584.36 402.64 465.68 524 458.2 533.71c-3.53 3.81-2.56 7.83-2.56 18.09 0 9.98-10.3 12.55-13.49 12.55H201c-13.68 0-13.8-9.91-13.8-11.85v-11.51c0-13.92-113-95.59-132.57-238.77-.93-5.6-15.63-9.68-24.01-11.79-3.56-1.07-5.64-3.77-5.64-6.19v-25.87c0-4.46 5.34-4.9 7.48-4.9.53 0 .86.03.86.03h291.53c12.6 0 64.08-60.54 187.17-127.96 8.99-6.07 2.24-15.38 10.64-26.08 8.4-10.71 16.5-18.06 30.42-18.06 13.94 0 26.88 16.06 33.6 20.07z" id="D"/><path d="M216.05 542.76c-3.87 0-5.81-.96-5.81-1.49 0-8.27-.9-13.88-5.49-17.94-90.36-92.46-125.3-184.92-126.59-201.49-2.68-33.51-4.46-38.41-28.81-49.07-.14-.06-.29-.11-.43-.16-.45-.14-.75-.26-.95-.34v-.19c0-.19-.01-.48-.02-.81h286.9c4.82 0 10.78-5.06 27.32-19.71 26.32-23.31 70.37-62.32 135.95-96.39l5.37-3.08c18.16-10.42 28.21-16.17 32.85-25.77 1.42-2.55 1.84-4.83 2.25-7.04.47-2.58.93-5.01 3.11-8.6.05-.08.47-.7.52-.78 2.27-3.38 6.48-9.67 12.54-9.67 1 0 2.05.17 3.13.5 12.23 5.86 22.97 22.2 24.38 24.4 2.3 5.49 2.77 9.9 1.4 13.11-1.6 3.77-5.64 5.29-7.37 5.94-2.63.97-5 1.1-7.17 1.1-.98 0-1.97-.03-2.97-.06l-3.52-.08a40.07 40.07 0 0 0-14.82 2.67c-.2.07-.38.16-.56.26-15.45 8.65-58 57.94-76.64 82.12-7.35 7.54-10.12 19.88-6.42 28.83 2.5 6.04 7.47 9.5 13.67 9.5h116.24c2.78 0 3.52 2.15 3.52 3.42 0 .99-.42 3.3-4.31 3.3-17.78 0-22.09 11.4-22.28 15.81-1.28 11.07-3.76 19.81-5.94 27.51l-1.5 5.38c-14.39 65.73-79.27 141.68-110.45 178.19-8.99 10.52-14.93 17.47-16.85 20.86a2.16 2.16 0 0 0-.17.34c-1.45 3.19-1.57 7.05-1.68 10.77-.24 8.3-1.07 8.64-3.07 8.66H216.05" id="E"/><path d="M545.68 112.24l-.5.73c-1.72 2.87-2.06 4.73-2.5 7.07-.42 2.28-.93 5.08-2.64 8.18-5.21 10.71-15.64 16.69-34.48 27.49l-5.2 2.99-.32.17c-65.12 33.84-108.93 72.63-135.11 95.81-17.06 15.11-23.44 20.77-30.07 20.77H63.99c14.15 8.62 16.1 18.26 18.31 46.05.75 9.58 29.69 100.93 125.35 198.84 5.47 4.93 6.54 11.54 6.72 18.17.45.05 1.01.08 1.66.08h.31 213.68c.17-1.36.23-3.29.27-4.61.12-3.94.25-8.42 2.05-12.38a6.02 6.02 0 0 1 .34-.67c2.03-3.58 7.05-9.51 17.31-21.52 30.96-36.24 95.38-111.66 109.5-176.18l.09-.37 1.52-5.46c2.13-7.51 4.54-16.01 5.78-26.64.28-6.1 4.72-14.57 15.46-18.07H477.87c-7.84 0-14.39-4.52-17.51-12.07-4.35-10.51-1.35-24.36 7.11-33.17 16.06-20.8 60.52-73.36 77.75-83.02.36-.2.74-.38 1.13-.53 6.86-2.59 12.31-2.92 16.28-2.92 1.24 0 2.44.03 3.61.07.02.01.23.01.26.01l2.63.06c2.06 0 3.82-.15 5.76-.86 1.98-.74 4.16-1.78 4.95-3.65.87-2.03.41-5.41-1.29-9.57-3.31-5.17-12.7-17.7-22.15-22.4-.59-.16-1.13-.24-1.64-.24-3.84 0-7.25 5.1-9.08 7.84zm13.74-15.4c14.48 6.77 26.55 26.34 26.55 26.34 7.96 18.61-4.35 23.45-8.21 24.9-3.06 1.13-5.83 1.38-8.63 1.38-1.04 0-2.09-.04-3.16-.07a90.18 90.18 0 0 0-3.34-.07c-3.78 0-8.02.38-13.34 2.39-14.23 7.97-55.98 55.83-75.52 81.22-10.86 10.87-8.93 31.42 4.1 31.42h116.24c9.87 0 10.89 15.06-.79 15.06-15.16 0-18.12 9.23-18.12 11.95-1.63 14.26-5.25 24.96-7.57 33.66-18.58 84.84-119.68 185.87-127.71 200.04-3.18 6.99 1.96 21.77-8.51 21.87H216.34h-.31c-5.49 0-9.95-1.64-9.95-5.66 0-8.01-.94-12.08-4.17-14.89C108.53 430.9 75.17 337.16 74 322.17c-2.59-32.57-3.85-35.74-26.32-45.57-1.98-.63-3.86-1.52-3.86-3.79 0-1-.2-3.94.44-4.95.54-.67 1.84-.77 2.69-.77.35 0 .62.02.73.02h287.17c10.4 0 62.09-64.07 161.35-115.64 21.09-12.15 32.01-17.77 36.44-27.07 2.66-4.66.96-8.45 5.55-15.96 2.29-3.32 7.61-12.38 16.57-12.38 1.46 0 3.01.24 4.66.78z" id="F"/></defs><use xlink:href="#A" fill="#fffffe"/><use xlink:href="#A" class="B C"/><use xlink:href="#B" class="D"/><use xlink:href="#B" class="B C"/><use xlink:href="#C" class="D"/><use xlink:href="#C" class="B C"/><use xlink:href="#D" fill="#fff"/><use xlink:href="#D" class="B C"/><use xlink:href="#E" class="D"/><use xlink:href="#E" class="B C"/><use xlink:href="#F" fill="#fff"/><use xlink:href="#F" class="B C"/></svg>